<svg id="圖層_1" data-name="圖層 1" xmlns="http://www.w3.org/2000/svg" viewBox="0 0 355 369.23"><defs><style>.cls-1,.cls-9{fill:#e0c18b;}.cls-2{fill:#e1c28d;}.cls-3{fill:#e1c18c;}.cls-4{fill:#e0c08a;}.cls-5{fill:#e0c08b;}.cls-6{fill:#e1c18b;}.cls-7{fill:#e1c38f;}.cls-8{fill:#e3c695;}.cls-9{font-size:53.15px;font-family:ARDCCSTMoritaFGB-BD, AR DCCSTMoritaFGB;}</style></defs><path class="cls-1" d="M272.28,190.37a12.15,12.15,0,0,1-5-8.31c-.67-3.8-1.91-6.5-.82-9.79,2.41-7.29,1.15-9.15-6.36-8.66-.78,0-1.67.74-2.07-.42-.35-1,.48-1.52,1.23-1.85,4-1.72,7.26-4.6,11-6.59,5.7-3,12.24-.13,14.76,5.64,1.49,3.42,2.93,6.86,5.51,9.88,3.51,4.12,4.61,9.5,4.8,14.85.1,2.74,1,3,3.21,2.19a20.43,20.43,0,0,0,12.79-13.59c.79-2.5,1.48-5.23,4.85-4.12s2.14,3.82,1.47,6.26c-2.7,9.72-9.49,15.42-18.69,18.25-4.57,1.41-5.23,3.9-4.68,8,.68,5.19,3.8,9.52,4.55,14.67a31.78,31.78,0,0,1,.58,5.89c-.07,1.87-.46,4-2.62,4.26s-4.26.59-5.92-1.5A29.37,29.37,0,0,1,284.87,210c-.2-1.81,0-3.66-.23-5.47-.71-5.75-2.59-7.42-8.29-7.4-12.4,0-25-.95-36.86,3.63-15.5,6-24.72,17.44-27.61,33.63-3,16.57,2.77,31.25,11.17,45.14.85,1.42,1.89,2.72,2.82,4.09,1.26,1.84,2.62,3.78,0,5.52-2.4,1.6-4.3,0-5.5-1.72-7.94-11.41-13.59-23.74-15.49-37.73-2.23-16.37,2.38-30.62,13.39-42.45,4-4.33,5.46-8.88,6.77-14.18,7.4-29.88,23.15-53.58,51.36-67.73,9.86-4.94,20.45-7.54,31.24-9.43,2.14-.38,4.2,0,4.74,2.42.6,2.64-.85,3.85-3.49,4.26-14.22,2.22-27.7,6.48-39.69,14.71-19.66,13.5-31.21,32.46-37.08,55.2-.34,1.32-1.73,4.61,1.89,3.11C246.13,190.62,258.8,190.18,272.28,190.37Z"/><path class="cls-1" d="M179.88,132.06c3.31-5,5.94-9.43,10.55-12.45,16.12-10.52,34.46-2.13,36.11,17,.65,7.55-3,13.91-8.75,18.62-8.3,6.83-17,13.11-24.53,20.9-4.15,4.32-6.34,9.65-8.21,15.16-.92,2.7-1.65,5.78-5.16,5.83s-4.54-2.77-5.2-5.67c-2.29-10.14-9.26-17-16.56-23.62-1.24-1.12-2.3-1.74-3.84-.4-7.58,6.6-16.19,12.41-16.49,24.08-.07,2.93-1.49,6-5,5.6-3.71-.39-3.83-3.71-3.5-6.6,1.32-11.48,7.85-19.9,16.6-26.67,3.32-2.58,3-3.49-.09-5.91-4.37-3.44-8.85-6.91-10.8-12.66-4.16-12.22.68-23.77,12.33-28.7,11.24-4.75,25,0,30.38,10.62C178.37,128.5,178.91,129.88,179.88,132.06Zm.11,4.39c-.42,9.6-4.86,15.87-11.67,20.72-.94.67-1.86,1.37-2.78,2.07-1.61,1.23-2,2.49-.26,4,5.67,5,10.88,10.38,14.77,17.94,3.53-7.32,8.39-12.21,13.53-16.9,6.84-6.24,14.77-11.21,21.12-18,3.93-4.19,4.21-9.24,2.38-14.32-1.9-5.27-5.76-8.1-11.57-8.61-8.33-.74-12.81,4.2-16.48,10.45C187,137.36,184.82,140,180,136.45Zm-22.76-13c-13.49-1.68-18.62,12.32-13.61,20.94,2.8,4.84,7.26,9.59,12.51,10.58,4.05.77,7.9-4,11.17-7.23,4.55-4.51,5.59-10.08,3.55-16S164.58,123.42,157.23,123.42Z"/><path class="cls-2" d="M156.39,233.33c.09-7.56-1.62-14.71-3.87-21.89-1.39-4.46-3.35-5-7.46-3.87-17.45,4.8-34.88,5.27-52.16-1.08C75.15,200,63.06,187.36,54.36,171c-1.14-2.15-1.47-4.28.86-5.65,2.63-1.54,4,.65,5,2.5a74.68,74.68,0,0,0,20.09,24.29,58.31,58.31,0,0,0,31.05,11.95,87.44,87.44,0,0,0,31.51-2.65c3.35-.92,3.73-2.14,2-4.73-.46-.69-1.22-1.3-1.38-2-.55-2.59-1.51-6.09.74-7.42s3.4,2.19,4.57,3.82c19,26.48,17.95,55.92,2.36,83-2.46,4.28-5.44,8.29-8.32,12.33-1.56,2.19-3.91,3.77-6.35,1.85-2.62-2.05-.44-4.22,1-6,9.29-11.56,15.73-24.44,18.15-39.15C156.15,240,156.15,236.63,156.39,233.33Z"/><path class="cls-3" d="M237.55,131.37c-1.71,2.84-3.58,2.94-6.05,3.75-1.93-4.32-1-7.42,1.74-11.71,10.47-16.17,16.51-33.9,16.41-53.32a83.7,83.7,0,0,0-3.32-22.51c-.7-2.46-1.49-5.27,1.86-6.2s3.93,1.78,4.63,4.34a95.69,95.69,0,0,1,1.38,45.62c-.13.61-.15,1.23-.33,2.77a43.65,43.65,0,0,1,23.36-5.45,57.14,57.14,0,0,1,16,3.14c2.34.8,4.7,2,3.88,4.84-.9,3-3.73,2.36-5.9,1.56-8.32-3.08-16.81-3.91-25.38-1.64S250,103.09,247,112.43"/><path class="cls-3" d="M86,72c-.57,5.25-1.57,10.5-1.62,15.75-.2,21.16,7,39.76,19.86,56.43a219,219,0,0,0,23.29,25.13c1.91,1.81,2.83,3.22,1.22,5.86s-2.62,2.32-4.51.53c-15.3-14.58-29.71-29.79-38.57-49.44-8-17.64-9.82-35.86-6.23-54.75.39-2.07,1.1-3.9,3.76-3.72C85.45,68,86.31,69.15,86,72Z"/><path class="cls-1" d="M70.34,127.21c-6.14-5.57-13.44-2.78-19.93-4.51a7.23,7.23,0,0,0-7.22,2.19c-1.28,1.5-2.62,2-4.33,1.11a3.87,3.87,0,0,1-2.33-4c.21-2,1.86-2.07,3.3-2.36,4.76-1,4.92-3.6,4.77-8.21-.36-11.51-5-22.92-1.11-34.54a6,6,0,0,1,.21-1c.88-1.67.94-4.58,3.07-4.54,1.9,0,1.92,2.86,2.3,4.51,1.17,5,2.35,10,5,14.46,3.12,5.23,2.25,10.88,2.16,16.45-.05,3.18.72,4.34,3.92,2.67,4.13-2.17,6.94,1,10.32,2.67-1.11.5-2,.82-2.9,1.31-4.51,2.59-4.52,3.26-.78,6.77C68.5,121.78,71,123,70.34,127.21Z"/><path class="cls-3" d="M155,109.09c15.88-15.27,24.07-33.15,25.4-54.52a139.42,139.42,0,0,0-1.18-25.13c-.31-2.6-.43-5.53,2.7-6.05,3.33-.56,3.68,2.28,4.07,4.93,2.81,19.48,1.68,38.52-6.06,56.88-3.19,7.54-7.78,14.18-12.7,20.67C164.07,110,160.17,110.06,155,109.09Z"/><path class="cls-3" d="M126.19,105.65C125,97,123,88.47,122.78,79.67c-.45-15.59,1.38-30.67,9-44.6,1.25-2.27,3-4.45,5.88-2.64,2.53,1.56,1.2,3.77.18,5.69-10,18.63-9.87,38.37-6.39,58.48A57.42,57.42,0,0,0,136.92,113c1.68,3.28-.27,4.83-2.31,6-2.67,1.56-2.77-1.46-3.46-2.78-1.81-3.47-3.35-7.08-5-10.64Z"/><path class="cls-1" d="M274.77,74.84C268.6,67,267.85,58.22,267.89,49c-.32-1.67,1.49-4.74,1.49-4.74a40,40,0,0,1,3.05,3.33c1,1.37,3.6,6.55,3.6,6.55s1.64-2.59,1.68-3.9,7.24,10.59,6.66,12.91c-.93,3.72-1.72,6.89,4.16,5.16A3,3,0,0,1,291.85,70a3,3,0,0,0,.72.82A29.38,29.38,0,0,0,290,72.56c-2.94,2.7-6.05,5-10.26,5.57-1.53.2-3.29.27-4.63,1.54-.82.78-1.7,2.61-3.15,1-.84-.92-2.24-1.87-1.89-3.32s2-1.5,3.28-1.72C273.65,75.6,273.9,75.34,274.77,74.84Z"/><path class="cls-4" d="M177.85,51.82c-.73,2.33.37,6.48-2.34,7.64s-5.19-2.1-7.34-4.13c-6-5.66-6.7-12.59-4.89-20.13.45-1.86,1.45-2.22,3.3-1.4C172.42,36.38,177.85,44.68,177.85,51.82Z"/><path class="cls-5" d="M132.29,80.4a20.11,20.11,0,0,1,16.5-19c2.23-.46,3-.24,3.07,2.1.19,9.19-6.87,18.17-15.9,20.12C132.35,84.41,132.06,84.16,132.29,80.4Z"/><path class="cls-4" d="M95.23,180.44c-.46,3.12,0,7.88-2.9,9.16-3.16,1.38-5.35-3-7.39-5.37-5.2-5.92-5.32-12.78-2.65-19.92.76-2,1.72-2.05,3.31-1C91.6,167.36,95.11,172.77,95.23,180.44Z"/><path class="cls-1" d="M241.64,91.72c-.64,2.77,0,8-3.27,9s-5.83-3.62-7.88-6.4c-4.16-5.62-4.18-11.88-1.82-18.38,1-2.69,2.11-2.31,4-1.21C237.79,77.75,241.74,84.78,241.64,91.72Z"/><path class="cls-4" d="M152,39.37c-.12,8.85-4.28,14.94-12.36,18.59-3.14,1.43-4.51.67-5-2.63C133.37,46.77,141,36,149.51,34.42,151.84,34,152,34.37,152,39.37Z"/><path class="cls-6" d="M192,200.42a19.55,19.55,0,0,1,15.38-19.13c2.61-.58,3.47-.3,3.51,2.59a19.94,19.94,0,0,1-16.17,19.9C190.88,204.52,192.41,201.73,192,200.42Z"/><path class="cls-4" d="M102.88,95a23.67,23.67,0,0,1-8,15.3c-1.38,1.22-2,.82-3-.61-5.16-7.57-3.14-20.39,4.14-26,2.11-1.62,3.18-.74,4.19,1.21C101.86,88.1,102.14,91.57,102.88,95Z"/><path class="cls-1" d="M126.15,105.6c-.11,9-.6,9.3-8.91,5.29-7.1-3.43-10.07-9.62-10.87-17.11-.33-3,1.15-3.17,3.64-2.56,8,2,13.18,6.94,16.18,14.43Z"/><path class="cls-1" d="M120.17,70.48c-.15,4.34-.39,10.36-4.12,11.28-3.37.83-5.93-4.75-8-8.4-3.39-6.11-1.45-11.85.83-17.64,1-2.63,2.68-1.47,3.83-.36C117,59.48,120.37,64.13,120.17,70.48Z"/><path class="cls-4" d="M191.07,96.63a24.75,24.75,0,0,1-5.41-.69c-6.27-1.66-6.48-2.12-2.3-6.91a20.18,20.18,0,0,1,22.11-5.54c2.71,1,3.15,2.26,1.49,4.3C202.86,92.83,198,96.6,191.07,96.63Z"/><path class="cls-4" d="M156.09,80c.23-4.4,2.36-8.66,5.15-12.62,1.31-1.86,2.68-2.12,4.16.19,6,9.3,5.54,16.91-1.14,25.54-1.46,1.89-2.69,1.88-3.79,0C158.22,89.21,156.11,85.25,156.09,80Z"/><path class="cls-6" d="M277.15,120.44c-2.66.25-4-.42-2.92-3.93,2.81-9.27,10.48-15.1,19.89-14.86,2.32.06,3.23.38,2.57,3.08A20.16,20.16,0,0,1,277.15,120.44Z"/><path class="cls-6" d="M243.33,149.52c-1.9,1.87-3.35,2.18-4.74-1.21-3.68-9-1.41-18.32,6-24.08,1.84-1.42,2.74-1.75,3.93.77A20.15,20.15,0,0,1,243.33,149.52Z"/><path class="cls-5" d="M254.78,113.68a13.57,13.57,0,0,1,1.24-7.17c.72-1.68.4-4.52,3-4.62,2.14-.08,3.24,2.07,4.45,3.6,5.16,6.5,6.5,13.49,3.09,21.32-1.52,3.5-3.51,3.17-5.53,1C257.35,123.93,254.41,119.55,254.78,113.68Z"/><path class="cls-3" d="M296,131.49c7.66,0,12.2,3.1,16.24,7.28,2.12,2.18,1.12,3.21-1.08,4.37a19.81,19.81,0,0,1-24.29-4.94c-1.5-1.84-1.68-3,.72-4.13C290.82,132.58,294,131.36,296,131.49Z"/><path class="cls-5" d="M74.35,157.45c0,3.46.39,8.39-2.77,9.22-3.36.89-6-3.4-8-6.36-4-5.77-4-12-1.73-18.43.76-2.18,1.83-2.82,4-1.28C71.66,144.74,74.39,149.93,74.35,157.45Z"/><path class="cls-4" d="M119.14,193.6c-.13,2.66.35,7.65-3.07,8.67-2.49.73-5.52-3.33-7.6-6.2-4.19-5.76-4.16-11.9-2.35-18.38.79-2.83,2.21-2.87,4.34-1.42C116.24,180.18,119.16,185.64,119.14,193.6Z"/><path class="cls-4" d="M138.11,101c-.24-7,2.76-11.55,6.94-15.57,1.12-1.08,1.94-2,3.39,0,5.4,7.79,3.32,20.43-4.25,25.73-2.11,1.48-3.07,1.35-4-1C139,106.91,137.48,103.74,138.11,101Z"/><path class="cls-4" d="M113.21,126.15c.52,5.41-2.56,9.6-5.48,13.81-1.26,1.81-2.39,1.74-3.77-.22a20.89,20.89,0,0,1,1.15-25.32c1.92-2.25,3.18-2.27,4.81.35A19.49,19.49,0,0,1,113.21,126.15Z"/><path class="cls-5" d="M211.83,58.12C211.55,66.28,203,75,194.9,75.73c-3.54.32-4.35-1.07-3.84-4.23,1.4-8.58,9.61-16,18.2-16.46C211.8,54.9,212,56.26,211.83,58.12Z"/><path class="cls-7" d="M106.14,45.88c-4.4-10.21-9.42-3.41-14.21-1.93-.75.23-1.29,1.09-2,1.38-1.08.43-1.86-.38-2.56-1.07-1.21-1.19-.1-1.78.74-2.15,2.76-1.21,1.8-2.61.8-4.67-2.11-4.38-4.37-8.08-10-8-1.12,0-3.12-.68-3-2.12.19-2.16,2.34-1.23,3.62-1.29a76.23,76.23,0,0,1,9.44.05c2.52.2,5.37.88,5.11,4.17-.43,5.27,3.46,5.16,6.5,5.16,6.79,0,6.81-.22,6.64,6.51a20.68,20.68,0,0,1-.3,2.35Z"/><path class="cls-1" d="M230.72,166.75c-.22,5.21-2.73,9.37-6,13.17-2,2.24-3.1,1.39-4.4-.81-5.59-9.46-4-17,4.86-23.51,1.6-1.16,2.31-.85,2.91.71C229.34,159.68,230.89,163,230.72,166.75Z"/><path class="cls-5" d="M229.5,124.94c-3.61-5.42-8.37-9.11-12.54-13.33-2.8-2.84-1.47-7.94-.58-11.88.51-2.3,2.72-.84,4.11-.15C229.7,104.16,233.34,113.79,229.5,124.94Z"/><path class="cls-1" d="M118.21,148.82c.11-3.47-.23-7.09,2.47-8.13s4.38,2.32,6.19,4.12c4.49,4.48,4.33,10,3,15.59-.5,2.1-2,2.5-3.73,1.19C121.57,158.22,118.31,154.1,118.21,148.82Z"/><path class="cls-3" d="M246.77,65.85c0,5.38-.46,5.67-5.13,3.18a16.24,16.24,0,0,1-8.83-16.46c.26-2.77,1.24-2.86,3.52-1.93C243.41,53.5,246.75,58.21,246.77,65.85Z"/><path class="cls-3" d="M163.94,194.22c-7.08-.59-11.89-4-14.91-10.12-1.48-3-.22-3.69,2.38-4.22a14.13,14.13,0,0,1,16.64,10.47C169.22,195.64,165.5,194.24,163.94,194.22Z"/><path class="cls-2" d="M195,49c-.26-7.12,3.75-11.17,9.35-14.15,1.69-.91,3-1.29,3.48,1.38a16,16,0,0,1-6.64,15.95c-1.6,1.08-3.26,3.12-5.18,2.11S195.36,50.62,195,49Z"/><path class="cls-4" d="M298.94,167.75c.69-7.39,4.39-13.41,10.45-15.66,1.62-.6,2.67-1,3.17,1.33,1.71,7.7-2.7,15.85-10.36,17.91C297.34,172.65,299.15,170.86,298.94,167.75Z"/><path class="cls-2" d="M244,185.19c-1.88.09-3.11.05-2.43-2.67,1.6-6.39,6.94-10.58,13.26-10.21,2.44.14,2.59.89,2,3A13.91,13.91,0,0,1,244,185.19Z"/><path class="cls-6" d="M89.26,145.26c-.48,3.4-2.38,5.22-5.93,5.2s-5.43-2.09-5.4-5.16c0-3.35,1.72-6.06,5.82-5.8C87.3,139.73,89.05,141.71,89.26,145.26Z"/><path class="cls-6" d="M203.15,109.57c-3.65.53-5.31-1.28-5.16-4.71.14-3.27,2.1-5.21,5.36-5.15s5.52,1.55,5.59,5.38C209,109.39,206.48,109.93,203.15,109.57Z"/><path class="cls-2" d="M222.43,69.8c-3.35-.35-5.14-2.43-5-5.24s2-5,5.27-4.65c3,.3,5,2.19,4.84,5.19S225.25,69.59,222.43,69.8Z"/><path class="cls-6" d="M91.27,74.05c0-2.53,2-4,4.68-3.88s4.48,1.8,4.31,4.89-1.76,4.62-4.68,4.51S91.25,77.6,91.27,74.05Z"/><path class="cls-7" d="M214.4,196.16c2.4.28,4.31,1.43,4.09,4-.18,2.19-1.39,4.06-4.14,4s-3.95-1.91-4.1-4.09C210.06,197.56,212,196.41,214.4,196.16Z"/><path class="cls-3" d="M184.52,112.48a4.08,4.08,0,0,1-8.15-.52c.09-2.16,1.79-3.39,4-3.44C183.12,108.46,184,110.28,184.52,112.48Z"/><path class="cls-7" d="M293,148.64c2.21.33,4,1.37,4.06,3.6s-1.06,4.12-3.81,4.13c-2.41,0-3.62-1.23-3.62-3.62S290.94,149.19,293,148.64Z"/><path class="cls-7" d="M170.09,203.58c0,2.09-.87,3.58-3.17,3.55a3.37,3.37,0,0,1-3.63-3.31,3.13,3.13,0,0,1,3.29-3.52C168.8,200.26,169.92,201.41,170.09,203.58Z"/><path class="cls-8" d="M128,125.61c-.3,2.27-1.41,3.58-3.43,3.8s-3.08-.8-3.36-2.74c-.31-2.23.92-3.46,2.88-3.81C126.32,122.45,127.19,124.16,128,125.61Z"/><path class="cls-4" d="M100.28,159.43c-.24,2.06-1.35,3.09-3.32,2.91s-2.9-1.48-2.7-3.4a2.68,2.68,0,0,1,3-2.57A2.73,2.73,0,0,1,100.28,159.43Z"/><path class="cls-4" d="M168.75,136.52a7.47,7.47,0,0,1-.24,1.27c-1.7,5.15-6.79,11.79-11.72,12-4.93-.24-10-6.88-11.72-12a7.47,7.47,0,0,1-.24-1.27,6.26,6.26,0,0,1,9.21-5.63c1,.48,2,1.74,2.75,1.74s1.76-1.26,2.75-1.74A6.26,6.26,0,0,1,168.75,136.52Z"/><text class="cls-9" transform="translate(44.64 339.54)">天母愛舒眠</text></svg>